<svg width="64" height="64" viewBox="0 0 64 64" fill="none" xmlns="http://www.w3.org/2000/svg">
<path d="M32 64C49.6731 64 64 49.6731 64 32C64 14.3269 49.6731 0 32 0C14.3269 0 0 14.3269 0 32C0 49.6731 14.3269 64 32 64Z" fill="#2979FF"/>
<path d="M32 53.3333C43.7821 53.3333 53.3333 43.782 53.3333 32C53.3333 20.2179 43.7821 10.6666 32 10.6666C20.2179 10.6666 10.6667 20.2179 10.6667 32C10.6667 43.782 20.2179 53.3333 32 53.3333Z" fill="#40C4FF"/>
<path d="M32 42.6667C37.891 42.6667 42.6667 37.8911 42.6667 32C42.6667 26.109 37.891 21.3334 32 21.3334C26.109 21.3334 21.3333 26.109 21.3333 32C21.3333 37.8911 26.109 42.6667 32 42.6667Z" fill="#FAFAFA"/>
</svg>
